<svg preserveAspectRatio="none" width="100%" height="100%" overflow="visible" style="display: block;" viewBox="0 0 23.7094 21.069" fill="none" xmlns="http://www.w3.org/2000/svg">
<g id="Group">
<path id="Vector" d="M7.76561 21.069C6.54168 21.069 5.24899 20.378 3.91257 19.0065C2.627 17.6872 2.14807 16.2581 2.56351 14.9825C2.78822 14.2928 3.25899 13.6914 3.94735 13.1959C2.45392 12.699 1.17177 11.6398 0.643841 9.75328C0.383828 8.82361 0 3.7037 0 3.05169C0 1.29325 0.731829 0.55852 1.34564 0.251615C3.06589 -0.607982 5.39019 0.970009 6.06143 1.4737C8.31461 3.1655 10.5652 6.14656 11.8547 8.30068C13.1445 6.14629 15.3948 3.16523 17.6479 1.47397C18.3189 0.969746 20.6422 -0.607455 22.3637 0.251878C22.9778 0.55852 23.7094 1.29325 23.7094 3.05169C23.7094 3.7037 23.3258 8.82308 23.0655 9.75328C22.5376 11.6395 21.2549 12.699 19.7618 13.1956C20.4507 13.6914 20.9214 14.2928 21.1461 14.9825C21.5616 16.2583 21.0826 17.6875 19.7971 19.0063C18.2001 20.6451 16.6656 21.3111 15.2364 20.9897C13.5346 20.6061 12.4811 18.9457 11.8547 17.5518C11.2285 18.9457 10.1753 20.6059 8.47373 20.9902C8.24059 21.0429 8.00428 21.069 7.76561 21.069ZM7.76587 13.4264C5.72476 13.7736 4.37649 14.5191 4.06616 15.472C3.76294 16.4032 4.54878 17.3953 5.0443 17.9035C6.23188 19.1219 7.26745 19.6414 8.12573 19.4483C9.19054 19.2078 10.1458 17.8666 10.9651 15.4622C11.0818 15.1192 11.272 14.5586 11.8547 14.5834C12.4419 14.5594 12.6276 15.1192 12.7443 15.462C13.5641 17.8672 14.5196 19.2081 15.5839 19.4483C16.4419 19.6414 17.4775 19.1222 18.6648 17.9035C19.1603 17.3951 19.9462 16.4032 19.643 15.4722C19.3326 14.5197 17.9841 13.7741 15.9432 13.4264C15.9435 13.4267 15.943 13.4264 15.9432 13.4264C15.513 13.3534 15.2235 12.9451 15.2968 12.5149C15.37 12.0842 15.7815 11.7949 16.2083 11.8684C18.3418 12.2306 20.8637 11.7546 21.5434 9.32756C21.7346 8.64394 22.1287 3.74348 22.1287 3.05169C22.1287 2.52693 22.0468 1.86043 21.6572 1.66548C21.0979 1.38571 19.7828 1.84752 18.5968 2.73767C16.1593 4.56778 13.5286 8.29884 12.5662 10.2886C12.4342 10.5615 12.1579 10.7348 11.8547 10.7348C11.5515 10.7348 11.2751 10.5615 11.1431 10.2886C10.1813 8.2991 7.55038 4.56804 5.11227 2.73794C3.92654 1.84778 2.61119 1.38677 2.05191 1.66575C1.66255 1.86043 1.58062 2.52693 1.58062 3.05169C1.58062 3.74348 1.97473 8.64394 2.16625 9.3273C2.84486 11.7528 5.3628 12.2301 7.49611 11.8689C7.49769 11.8687 7.49927 11.8684 7.50086 11.8682C7.9321 11.7933 8.33938 12.0842 8.41261 12.5146C8.48558 12.9451 8.19633 13.3532 7.76587 13.4264Z" fill="var(--fill-0, black)"/>
</g>
</svg>
