<svg preserveAspectRatio="none" width="100%" height="100%" overflow="visible" style="display: block;" viewBox="0 0 44.705 33.148" fill="none" xmlns="http://www.w3.org/2000/svg">
<path id="Vector" d="M0 31.4445V24.9445C0 23.9222 0.3635 23.0493 1.0905 22.326C1.81783 21.603 2.68867 21.2415 3.703 21.2415H10.813C11.3953 21.2415 11.935 21.3752 12.432 21.6425C12.9287 21.9098 13.3523 22.2815 13.703 22.7575C14.6857 24.1815 15.939 25.2848 17.463 26.0675C18.9867 26.8502 20.6145 27.2415 22.3465 27.2415C24.0705 27.2415 25.6963 26.8502 27.224 26.0675C28.752 25.2848 30.028 24.1815 31.052 22.7575C31.3867 22.2815 31.796 21.9098 32.28 21.6425C32.7643 21.3752 33.3017 21.2415 33.892 21.2415H41.002C42.0243 21.2415 42.8972 21.603 43.6205 22.326C44.3435 23.0493 44.705 23.9222 44.705 24.9445V31.4445C44.705 31.9338 44.5435 32.34 44.2205 32.663C43.8972 32.9863 43.491 33.148 43.002 33.148H33.002C32.5127 33.148 32.1065 32.9863 31.7835 32.663C31.4602 32.34 31.2985 31.9338 31.2985 31.4445V27.126C30.0905 28.1863 28.7175 29.0085 27.1795 29.5925C25.6415 30.1765 24.0305 30.4685 22.3465 30.4685C20.6705 30.4685 19.0698 30.1785 17.5445 29.5985C16.0192 29.0185 14.6398 28.1943 13.4065 27.126V31.4445C13.4065 31.9338 13.2448 32.34 12.9215 32.663C12.5982 32.9863 12.192 33.148 11.703 33.148H1.703C1.214 33.148 0.807833 32.9863 0.4845 32.663C0.1615 32.34 0 31.9338 0 31.4445ZM22.3465 24.062C21.2038 24.062 20.1067 23.795 19.055 23.261C18.0037 22.727 17.1527 21.9845 16.502 21.0335C15.9287 20.2192 15.2492 19.5787 14.4635 19.112C13.6775 18.6453 12.8193 18.3287 11.889 18.162C12.9193 17.17 14.4698 16.4013 16.5405 15.856C18.6112 15.3107 20.5465 15.038 22.3465 15.038C24.1545 15.038 26.1002 15.3107 28.1835 15.856C30.2668 16.4013 31.8277 17.17 32.866 18.162C31.9277 18.3287 31.0655 18.6453 30.2795 19.112C29.4938 19.5787 28.8183 20.2192 28.253 21.0335C27.6023 21.9765 26.7473 22.717 25.688 23.255C24.6283 23.793 23.5145 24.062 22.3465 24.062ZM6.3465 17.3825C4.8225 17.3825 3.51083 16.8328 2.4115 15.7335C1.3125 14.6345 0.763 13.319 0.763 11.787C0.763 10.2377 1.3125 8.91967 2.4115 7.833C3.51083 6.74667 4.8225 6.2035 6.3465 6.2035C7.90383 6.2035 9.22583 6.74667 10.3125 7.833C11.3988 8.91967 11.942 10.2377 11.942 11.787C11.942 13.319 11.3988 14.6345 10.3125 15.7335C9.22583 16.8328 7.90383 17.3825 6.3465 17.3825ZM38.3465 17.3825C36.8225 17.3825 35.5108 16.8328 34.4115 15.7335C33.3125 14.6345 32.763 13.319 32.763 11.787C32.763 10.2377 33.3125 8.91967 34.4115 7.833C35.5108 6.74667 36.8225 6.2035 38.3465 6.2035C39.9038 6.2035 41.2258 6.74667 42.3125 7.833C43.3988 8.91967 43.942 10.2377 43.942 11.787C43.942 13.319 43.3988 14.6345 42.3125 15.7335C41.2258 16.8328 39.9038 17.3825 38.3465 17.3825ZM22.3465 11.1795C20.8225 11.1795 19.5108 10.6278 18.4115 9.5245C17.3125 8.42117 16.763 7.1075 16.763 5.5835C16.763 4.0265 17.3125 2.70667 18.4115 1.624C19.5108 0.541332 20.8225 0 22.3465 0C23.9038 0 25.2258 0.541332 26.3125 1.624C27.3988 2.70667 27.942 4.0265 27.942 5.5835C27.942 7.1075 27.3988 8.42117 26.3125 9.5245C25.2258 10.6278 23.9038 11.1795 22.3465 11.1795Z" fill="var(--fill-0, black)"/>
</svg>
