<svg preserveAspectRatio="none" width="100%" height="100%" overflow="visible" style="display: block;" viewBox="0 0 18.305 18.305" fill="none" xmlns="http://www.w3.org/2000/svg">
<path id="Vector" d="M13.4245 7.0305C13.637 7.0305 13.8152 6.95817 13.959 6.8135C14.1027 6.669 14.1745 6.48983 14.1745 6.276C14.1745 6.06233 14.1027 5.88467 13.959 5.743C13.8152 5.60133 13.637 5.5305 13.4245 5.5305H9.2245C9.012 5.5305 8.83392 5.60283 8.69025 5.7475C8.54642 5.892 8.4745 6.07117 8.4745 6.285C8.4745 6.49867 8.54642 6.67633 8.69025 6.818C8.83392 6.95967 9.012 7.0305 9.2245 7.0305H13.4245ZM13.4245 12.7805C13.637 12.7805 13.8152 12.7082 13.959 12.5635C14.1027 12.419 14.1745 12.2398 14.1745 12.026C14.1745 11.8123 14.1027 11.6347 13.959 11.493C13.8152 11.3513 13.637 11.2805 13.4245 11.2805H9.2245C9.012 11.2805 8.83392 11.3528 8.69025 11.4975C8.54642 11.642 8.4745 11.8212 8.4745 12.035C8.4745 12.2487 8.54642 12.4263 8.69025 12.568C8.83392 12.7097 9.012 12.7805 9.2245 12.7805H13.4245ZM5.8495 7.5805C6.207 7.5805 6.51308 7.45317 6.76775 7.1985C7.02225 6.944 7.1495 6.638 7.1495 6.2805C7.1495 5.923 7.02225 5.617 6.76775 5.3625C6.51308 5.10783 6.207 4.9805 5.8495 4.9805C5.492 4.9805 5.18592 5.10783 4.93125 5.3625C4.67675 5.617 4.5495 5.923 4.5495 6.2805C4.5495 6.638 4.67675 6.944 4.93125 7.1985C5.18592 7.45317 5.492 7.5805 5.8495 7.5805ZM5.8495 13.3305C6.207 13.3305 6.51308 13.2032 6.76775 12.9487C7.02225 12.6941 7.1495 12.388 7.1495 12.0305C7.1495 11.673 7.02225 11.3669 6.76775 11.1122C6.51308 10.8577 6.207 10.7305 5.8495 10.7305C5.492 10.7305 5.18592 10.8577 4.93125 11.1122C4.67675 11.3669 4.5495 11.673 4.5495 12.0305C4.5495 12.388 4.67675 12.6941 4.93125 12.9487C5.18592 13.2032 5.492 13.3305 5.8495 13.3305ZM1.70325 18.305C1.24325 18.305 0.844417 18.1361 0.50675 17.7983C0.168917 17.4606 0 17.0617 0 16.6017V1.70925C0 1.24758 0.168917 0.847332 0.50675 0.508499C0.844417 0.169499 1.24325 0 1.70325 0H16.5957C17.0574 0 17.4577 0.169499 17.7965 0.508499C18.1355 0.847332 18.305 1.24758 18.305 1.70925V16.6017C18.305 17.0617 18.1355 17.4606 17.7965 17.7983C17.4577 18.1361 17.0574 18.305 16.5957 18.305H1.70325ZM1.70325 16.6017H16.5957V1.70925H1.70325V16.6017Z" fill="var(--fill-0, #010305)"/>
</svg>
