<svg preserveAspectRatio="none" width="100%" height="100%" overflow="visible" style="display: block;" viewBox="0 0 44.598 28.598" fill="none" xmlns="http://www.w3.org/2000/svg">
<path id="Vector" d="M14.299 28.598C10.321 28.598 6.94333 27.2092 4.166 24.4315C1.38867 21.6538 0 18.2757 0 14.297C0 10.3187 1.38867 6.94133 4.166 4.165C6.94333 1.38833 10.321 0 14.299 0H30.299C34.277 0 37.6547 1.38883 40.432 4.1665C43.2093 6.94417 44.598 10.3223 44.598 14.301C44.598 18.2793 43.2093 21.6567 40.432 24.433C37.6547 27.2097 34.277 28.598 30.299 28.598H14.299ZM14.299 25.1795H30.299C33.2973 25.1795 35.8603 24.1157 37.988 21.988C40.1157 19.8603 41.1795 17.2973 41.1795 14.299C41.1795 11.3007 40.1157 8.73767 37.988 6.61C35.8603 4.48233 33.2973 3.4185 30.299 3.4185H14.299C11.3007 3.4185 8.73767 4.48233 6.61 6.61C4.48233 8.73767 3.4185 11.3007 3.4185 14.299C3.4185 17.2973 4.48233 19.8603 6.61 21.988C8.73767 24.1157 11.3007 25.1795 14.299 25.1795ZM15.06 15.4785V18.6795C15.06 19.0018 15.1758 19.279 15.4075 19.511C15.6395 19.743 15.9167 19.859 16.239 19.859C16.5537 19.859 16.829 19.743 17.065 19.511C17.3007 19.279 17.4185 19.0018 17.4185 18.6795V15.4785H20.6195C20.9422 15.4785 21.2193 15.3625 21.451 15.1305C21.683 14.8985 21.799 14.6213 21.799 14.299C21.799 13.9767 21.683 13.6995 21.451 13.4675C21.2193 13.2355 20.9422 13.1195 20.6195 13.1195H17.4185V9.9185C17.4185 9.59617 17.3007 9.319 17.065 9.087C16.829 8.855 16.5537 8.739 16.239 8.739C15.9167 8.739 15.6395 8.855 15.4075 9.087C15.1758 9.319 15.06 9.59617 15.06 9.9185V13.1195H11.859C11.5363 13.1195 11.2592 13.2355 11.0275 13.4675C10.7955 13.6995 10.6795 13.9767 10.6795 14.299C10.6795 14.6213 10.7955 14.8985 11.0275 15.1305C11.2592 15.3625 11.5363 15.4785 11.859 15.4785H15.06ZM29.6195 11.098V18.6795C29.6195 19.0018 29.7355 19.279 29.9675 19.511C30.1995 19.743 30.4767 19.859 30.799 19.859C31.1213 19.859 31.3985 19.743 31.6305 19.511C31.8625 19.279 31.9785 19.0018 31.9785 18.6795V10.4425C31.9785 9.9535 31.8168 9.54733 31.4935 9.224C31.1705 8.90067 30.7643 8.739 30.275 8.739H27.799C27.4767 8.739 27.1995 8.855 26.9675 9.087C26.7355 9.319 26.6195 9.59617 26.6195 9.9185C26.6195 10.2332 26.7355 10.5083 26.9675 10.744C27.1995 10.98 27.4767 11.098 27.799 11.098H29.6195Z" fill="var(--fill-0, white)"/>
</svg>
