<svg preserveAspectRatio="none" width="100%" height="100%" overflow="visible" style="display: block;" viewBox="0 0 22.3525 16.574" fill="none" xmlns="http://www.w3.org/2000/svg">
<path id="Vector" d="M0 15.7223V12.4722C0 11.9611 0.18175 11.5247 0.54525 11.163C0.908917 10.8015 1.34433 10.6207 1.8515 10.6207H5.4065C5.69767 10.6207 5.9675 10.6876 6.216 10.8212C6.46433 10.9549 6.67617 11.1408 6.8515 11.3788C7.34283 12.0908 7.9695 12.6424 8.7315 13.0337C9.49333 13.4251 10.3072 13.6207 11.1732 13.6207C12.0352 13.6207 12.8482 13.4251 13.612 13.0337C14.376 12.6424 15.014 12.0908 15.526 11.3788C15.6933 11.1408 15.898 10.9549 16.14 10.8212C16.3822 10.6876 16.6508 10.6207 16.946 10.6207H20.501C21.0122 10.6207 21.4486 10.8015 21.8102 11.163C22.1717 11.5247 22.3525 11.9611 22.3525 12.4722V15.7223C22.3525 15.9669 22.2717 16.17 22.1102 16.3315C21.9486 16.4932 21.7455 16.574 21.501 16.574H16.501C16.2563 16.574 16.0532 16.4932 15.8917 16.3315C15.7301 16.17 15.6492 15.9669 15.6492 15.7223V13.563C15.0452 14.0932 14.3587 14.5042 13.5897 14.7962C12.8207 15.0882 12.0153 15.2343 11.1732 15.2343C10.3352 15.2343 9.53492 15.0892 8.77225 14.7992C8.00958 14.5092 7.31992 14.0972 6.70325 13.563V15.7223C6.70325 15.9669 6.62242 16.17 6.46075 16.3315C6.29908 16.4932 6.096 16.574 5.8515 16.574H0.8515C0.607 16.574 0.403917 16.4932 0.24225 16.3315C0.08075 16.17 0 15.9669 0 15.7223ZM11.1732 12.031C10.6019 12.031 10.0533 11.8975 9.5275 11.6305C9.00183 11.3635 8.57633 10.9922 8.251 10.5167C7.96433 10.1096 7.62458 9.78933 7.23175 9.556C6.83875 9.32267 6.40967 9.16433 5.9445 9.081C6.45967 8.585 7.23492 8.20067 8.27025 7.928C9.30558 7.65533 10.2732 7.519 11.1732 7.519C12.0772 7.519 13.0501 7.65533 14.0917 7.928C15.1334 8.20067 15.9138 8.585 16.433 9.081C15.9638 9.16433 15.5327 9.32267 15.1397 9.556C14.7469 9.78933 14.4092 10.1096 14.1265 10.5167C13.8012 10.9882 13.3737 11.3585 12.844 11.6275C12.3142 11.8965 11.7573 12.031 11.1732 12.031ZM3.17325 8.69125C2.41125 8.69125 1.75542 8.41642 1.20575 7.86675C0.65625 7.31725 0.3815 6.6595 0.3815 5.8935C0.3815 5.11883 0.65625 4.45983 1.20575 3.9165C1.75542 3.37333 2.41125 3.10175 3.17325 3.10175C3.95192 3.10175 4.61292 3.37333 5.15625 3.9165C5.69942 4.45983 5.971 5.11883 5.971 5.8935C5.971 6.6595 5.69942 7.31725 5.15625 7.86675C4.61292 8.41642 3.95192 8.69125 3.17325 8.69125ZM19.1733 8.69125C18.4113 8.69125 17.7554 8.41642 17.2057 7.86675C16.6562 7.31725 16.3815 6.6595 16.3815 5.8935C16.3815 5.11883 16.6562 4.45983 17.2057 3.9165C17.7554 3.37333 18.4113 3.10175 19.1733 3.10175C19.9519 3.10175 20.6129 3.37333 21.1563 3.9165C21.6994 4.45983 21.971 5.11883 21.971 5.8935C21.971 6.6595 21.6994 7.31725 21.1563 7.86675C20.6129 8.41642 19.9519 8.69125 19.1733 8.69125ZM11.1732 5.58975C10.4112 5.58975 9.75542 5.31392 9.20575 4.76225C8.65625 4.21058 8.3815 3.55375 8.3815 2.79175C8.3815 2.01325 8.65625 1.35333 9.20575 0.812C9.75542 0.270666 10.4112 0 11.1732 0C11.9519 0 12.6129 0.270666 13.1563 0.812C13.6994 1.35333 13.971 2.01325 13.971 2.79175C13.971 3.55375 13.6994 4.21058 13.1563 4.76225C12.6129 5.31392 11.9519 5.58975 11.1732 5.58975Z" fill="var(--fill-0, black)"/>
</svg>
