<svg preserveAspectRatio="none" width="100%" height="100%" overflow="visible" style="display: block;" viewBox="0 0 24.1435 19.3587" fill="none" xmlns="http://www.w3.org/2000/svg">
<path id="Vector" d="M12.0718 2.425C12.7424 1.671 13.5491 1.07833 14.4917 0.647C15.4344 0.215667 16.4278 0 17.4718 0C19.3051 0 20.8634 0.641667 22.1468 1.925C23.4301 3.20833 24.0718 4.76667 24.0718 6.6C24.0718 7.178 24.0061 7.74033 23.8748 8.287C23.7434 8.83367 23.5631 9.36133 23.3337 9.87C23.2257 10.1147 23.0598 10.2898 22.836 10.3955C22.612 10.501 22.3778 10.5081 22.1333 10.4168C21.9179 10.3294 21.7617 10.1843 21.6645 9.9815C21.5672 9.77867 21.5642 9.57992 21.6555 9.38525C21.8848 8.95125 22.061 8.49992 22.184 8.03125C22.307 7.56258 22.3685 7.0855 22.3685 6.6C22.3685 5.233 21.8942 4.07508 20.9455 3.12625C19.9967 2.17758 18.8388 1.70325 17.4718 1.70325C16.5456 1.70325 15.6868 1.9445 14.8953 2.427C14.1036 2.90933 13.3903 3.49058 12.7555 4.17075C12.5732 4.36992 12.3476 4.4695 12.0788 4.4695C11.8099 4.4695 11.5797 4.36992 11.388 4.17075C10.746 3.49458 10.0305 2.91433 9.2415 2.43C8.4525 1.9455 7.59592 1.70325 6.67175 1.70325C5.30475 1.70325 4.14783 2.17758 3.201 3.12625C2.25433 4.07508 1.781 5.23358 1.781 6.60175C1.781 7.08658 1.8425 7.56308 1.9655 8.03125C2.0885 8.49942 2.26267 8.95275 2.488 9.39125C2.57533 9.58592 2.57033 9.7785 2.473 9.969C2.37583 10.1597 2.22358 10.3006 2.01625 10.3918C1.78992 10.4831 1.55958 10.4773 1.32525 10.3743C1.09075 10.2713 0.920917 10.0968 0.81575 9.851C0.580417 9.33833 0.397583 8.80875 0.26725 8.26225C0.136917 7.71558 0.07175 7.1615 0.07175 6.6C0.07175 4.76667 0.713417 3.20833 1.99675 1.925C3.28008 0.641667 4.83842 0 6.67175 0C7.72175 0 8.71658 0.215667 9.65625 0.647C10.5959 1.07833 11.4011 1.671 12.0718 2.425ZM0.85175 19.3587C0.61125 19.3587 0.409167 19.2769 0.2455 19.1133C0.0818333 18.9496 0 18.7475 0 18.507V17.962C0 17.4823 0.178 17.0649 0.534 16.7098C0.89 16.3548 1.39067 16.0919 2.036 15.9212C2.43333 15.8037 2.80242 15.7431 3.14325 15.7393C3.48392 15.7353 3.84467 15.7459 4.2255 15.7712C4.358 15.7794 4.46358 15.8374 4.54225 15.9453C4.62092 16.0531 4.63867 16.1752 4.5955 16.3115C4.53267 16.5257 4.48608 16.7441 4.45575 16.9667C4.42542 17.1894 4.41025 17.4212 4.41025 17.662V18.507C4.41025 18.7475 4.32842 18.9496 4.16475 19.1133C4.00108 19.2769 3.79908 19.3587 3.55875 19.3587H0.85175ZM6 18.507V17.662C6 16.5547 6.56092 15.6618 7.68275 14.9833C8.80458 14.3046 10.2676 13.9652 12.0718 13.9652C13.8956 13.9652 15.3635 14.3046 16.4755 14.9833C17.5875 15.6618 18.1435 16.5547 18.1435 17.662V18.507C18.1435 18.7475 18.0617 18.9496 17.898 19.1133C17.7343 19.2769 17.5322 19.3587 17.2917 19.3587H6.85175C6.61125 19.3587 6.40917 19.2769 6.2455 19.1133C6.08183 18.9496 6 18.7475 6 18.507ZM20.5848 19.3587C20.3444 19.3587 20.1424 19.2769 19.9788 19.1133C19.8151 18.9496 19.7333 18.7475 19.7333 18.507V17.662C19.7333 17.4212 19.7185 17.1894 19.689 16.9667C19.6597 16.7441 19.6147 16.5257 19.554 16.3115C19.5068 16.1752 19.5226 16.0531 19.6012 15.9453C19.6799 15.8374 19.7855 15.7794 19.918 15.7712C20.2988 15.7459 20.6596 15.7353 21.0003 15.7393C21.3411 15.7431 21.7102 15.8037 22.1075 15.9212C22.7528 16.0919 23.2535 16.3548 23.6095 16.7098C23.9655 17.0649 24.1435 17.4823 24.1435 17.962V18.507C24.1435 18.7475 24.0617 18.9496 23.898 19.1133C23.7343 19.2769 23.5322 19.3587 23.2917 19.3587H20.5848ZM12.0665 15.5788C10.7965 15.5788 9.75975 15.7688 8.95625 16.149C8.15275 16.529 7.73508 17.0174 7.70325 17.6143V17.7393H16.4402V17.5893C16.4084 17.0091 15.9949 16.529 15.1997 16.149C14.4046 15.7688 13.3602 15.5788 12.0665 15.5788ZM3.81175 14.9833C3.32308 14.9833 2.90392 14.8071 2.55425 14.4548C2.20475 14.1026 2.03 13.6797 2.03 13.186C2.03 12.6903 2.20567 12.2677 2.557 11.918C2.90833 11.5683 3.33033 11.3935 3.823 11.3935C4.3175 11.3935 4.74058 11.5687 5.09225 11.919C5.44375 12.2693 5.6195 12.6954 5.6195 13.1973C5.6195 13.6846 5.44392 14.1041 5.09275 14.4557C4.74158 14.8074 4.31458 14.9833 3.81175 14.9833ZM20.3117 14.9833C19.8231 14.9833 19.4039 14.8071 19.0542 14.4548C18.7047 14.1026 18.53 13.6797 18.53 13.186C18.53 12.6903 18.7057 12.2677 19.057 11.918C19.4083 11.5683 19.8303 11.3935 20.323 11.3935C20.8175 11.3935 21.2406 11.5687 21.5923 11.919C21.9438 12.2693 22.1195 12.6954 22.1195 13.1973C22.1195 13.6846 21.9439 14.1041 21.5928 14.4557C21.2416 14.8074 20.8146 14.9833 20.3117 14.9833ZM12.0747 13.2212C11.2192 13.2212 10.4929 12.9227 9.89575 12.3255C9.29858 11.7283 9 11.002 9 10.1465C9 9.2785 9.29858 8.55008 9.89575 7.96125C10.4929 7.37225 11.2192 7.07775 12.0747 7.07775C12.9427 7.07775 13.6712 7.37225 14.26 7.96125C14.849 8.55008 15.1435 9.2785 15.1435 10.1465C15.1435 11.002 14.849 11.7283 14.26 12.3255C13.6712 12.9227 12.9427 13.2212 12.0747 13.2212ZM12.0805 8.69125C11.67 8.69125 11.3239 8.82983 11.0423 9.107C10.7604 9.384 10.6195 9.72817 10.6195 10.1395C10.6195 10.5468 10.7592 10.8923 11.0385 11.176C11.3177 11.4598 11.665 11.6018 12.0805 11.6018C12.492 11.6018 12.8364 11.4609 13.1137 11.1793C13.3912 10.8976 13.53 10.5512 13.53 10.14C13.53 9.725 13.3901 9.37975 13.1102 9.10425C12.8304 8.82892 12.4872 8.69125 12.0805 8.69125Z" fill="var(--fill-0, black)"/>
</svg>
