<svg preserveAspectRatio="none" width="100%" height="100%" overflow="visible" style="display: block;" viewBox="0 0 74.5083 60.4383" fill="none" xmlns="http://www.w3.org/2000/svg">
<path id="Vector" d="M35.255 18.4492L28.5375 11.6483C27.9714 11.0817 27.6883 10.4153 27.6883 9.64916C27.6883 8.88305 27.9714 8.21667 28.5375 7.65L35.255 0.849167C35.8217 0.283056 36.4881 0 37.2542 0C38.0203 0 38.6867 0.283056 39.2533 0.849167L46.0542 7.65C46.6203 8.21667 46.9033 8.88305 46.9033 9.64916C46.9033 10.4153 46.6203 11.0817 46.0542 11.6483L39.2533 18.4492C38.6867 19.0153 38.0203 19.2983 37.2542 19.2983C36.4881 19.2983 35.8217 19.0153 35.255 18.4492ZM2.83833 60.4383C2.02333 60.4383 1.34639 60.1689 0.8075 59.63C0.269167 59.0917 0 58.4147 0 57.5992V46.7658C0 45.0619 0.605833 43.6072 1.8175 42.4017C3.02972 41.1967 4.48111 40.5942 6.17167 40.5942H18.0217C18.9922 40.5942 19.8917 40.8169 20.72 41.2625C21.5478 41.7081 22.2539 42.3275 22.8383 43.1208C24.4761 45.4942 26.565 47.333 29.105 48.6375C31.6444 49.9419 34.3575 50.5942 37.2442 50.5942C40.1175 50.5942 42.8272 49.9419 45.3733 48.6375C47.92 47.333 50.0467 45.4942 51.7533 43.1208C52.3111 42.3275 52.9933 41.7081 53.8 41.2625C54.6072 40.8169 55.5028 40.5942 56.4867 40.5942H68.3367C70.0406 40.5942 71.4953 41.1967 72.7008 42.4017C73.9058 43.6072 74.5083 45.0619 74.5083 46.7658V57.5992C74.5083 58.4147 74.2392 59.0917 73.7008 59.63C73.1619 60.1689 72.485 60.4383 71.67 60.4383H55.0033C54.1878 60.4383 53.5108 60.1689 52.9725 59.63C52.4336 59.0917 52.1642 58.4147 52.1642 57.5992V50.4017C50.1508 52.1689 47.8625 53.5392 45.2992 54.5125C42.7358 55.4858 40.0508 55.9725 37.2442 55.9725C34.4508 55.9725 31.7831 55.4892 29.2408 54.5225C26.6986 53.5558 24.3997 52.1822 22.3442 50.4017V57.5992C22.3442 58.4147 22.0747 59.0917 21.5358 59.63C20.9969 60.1689 20.32 60.4383 19.505 60.4383H2.83833ZM10.5775 34.1625C8.0375 34.1625 5.85139 33.2464 4.01917 31.4142C2.1875 29.5825 1.27167 27.39 1.27167 24.8367C1.27167 22.2544 2.1875 20.0578 4.01917 18.2467C5.85139 16.4361 8.0375 15.5308 10.5775 15.5308C13.1731 15.5308 15.3764 16.4361 17.1875 18.2467C18.9981 20.0578 19.9033 22.2544 19.9033 24.8367C19.9033 27.39 18.9981 29.5825 17.1875 31.4142C15.3764 33.2464 13.1731 34.1625 10.5775 34.1625ZM63.9108 34.1625C61.3708 34.1625 59.1847 33.2464 57.3525 31.4142C55.5208 29.5825 54.605 27.39 54.605 24.8367C54.605 22.2544 55.5208 20.0578 57.3525 18.2467C59.1847 16.4361 61.3708 15.5308 63.9108 15.5308C66.5064 15.5308 68.7097 16.4361 70.5208 18.2467C72.3314 20.0578 73.2367 22.2544 73.2367 24.8367C73.2367 27.39 72.3314 29.5825 70.5208 31.4142C68.7097 33.2464 66.5064 34.1625 63.9108 34.1625Z" fill="var(--fill-0, #010305)"/>
</svg>
