<svg preserveAspectRatio="none" width="100%" height="100%" overflow="visible" style="display: block;" viewBox="0 0 40.2644 39.8608" fill="none" xmlns="http://www.w3.org/2000/svg">
<path id="Vector" d="M6.93294 14.9778C8.14827 14.9778 9.3326 15.2088 10.4859 15.6708C11.6396 16.1328 12.6744 16.7845 13.5904 17.6258L33.3524 36.5378H34.0789C34.8929 36.5298 35.5736 36.2535 36.1209 35.7088C36.6679 35.1641 36.9414 34.4876 36.9414 33.6793C36.9414 33.3153 36.9076 32.9306 36.8399 32.5253C36.7719 32.12 36.5384 31.7205 36.1394 31.3268L27.1154 22.3028L23.3394 11.0488L18.8589 12.1748C17.8516 12.4161 16.9468 12.2331 16.1444 11.6258C15.3424 11.0185 14.9414 10.187 14.9414 9.13131V4.36481L12.4329 3.11081L3.98244 14.4648C3.9151 14.5398 3.8526 14.6191 3.79494 14.7028C3.73694 14.7861 3.67461 14.8778 3.60794 14.9778H6.93294ZM6.93294 18.3008H3.33144C3.43944 18.6755 3.59544 19.0198 3.79944 19.3338C4.00344 19.6475 4.24277 19.9318 4.51744 20.1868L21.1304 35.2738C21.5891 35.6911 22.0924 36.0061 22.6404 36.2188C23.1884 36.4315 23.7699 36.5378 24.3849 36.5378H28.5479L11.3134 20.0648C10.7304 19.5138 10.0576 19.0821 9.29494 18.7698C8.53261 18.4571 7.74527 18.3008 6.93294 18.3008ZM24.3849 39.8608C23.3616 39.8608 22.3878 39.6735 21.4634 39.2988C20.5394 38.9241 19.6901 38.3955 18.9154 37.7128L2.66544 22.9628C1.1001 21.5308 0.223771 19.7743 0.0364379 17.6933C-0.150895 15.612 0.384105 13.7221 1.64144 12.0238L9.34144 1.72381C9.94011 0.91714 10.7343 0.38681 11.7239 0.13281C12.7139 -0.12119 13.6621 -0.0108571 14.5684 0.46381L15.9684 1.16381C16.7004 1.54648 17.2661 2.06948 17.6654 2.73281C18.0648 3.39614 18.2644 4.12898 18.2644 4.93131V8.89231L21.7489 8.01381C22.7979 7.73914 23.8059 7.86864 24.7729 8.40231C25.7403 8.93564 26.4001 9.70864 26.7524 10.7213L29.9849 20.4863L38.4664 28.9498C39.1491 29.6405 39.6194 30.3813 39.8774 31.1723C40.1354 31.9633 40.2644 32.7998 40.2644 33.6818C40.2644 35.3958 39.6629 36.8541 38.4599 38.0568C37.2569 39.2595 35.7986 39.8608 34.0849 39.8608H24.3849Z" fill="var(--fill-0, white)"/>
</svg>
