<svg preserveAspectRatio="none" width="100%" height="100%" overflow="visible" style="display: block;" viewBox="0 0 36.61 36.61" fill="none" xmlns="http://www.w3.org/2000/svg">
<path id="Vector" d="M26.849 14.061C27.274 14.061 27.6303 13.9163 27.918 13.627C28.2053 13.338 28.349 12.9797 28.349 12.552C28.349 12.1247 28.2053 11.7693 27.918 11.486C27.6303 11.2027 27.274 11.061 26.849 11.061H18.449C18.024 11.061 17.6678 11.2057 17.3805 11.495C17.0928 11.784 16.949 12.1423 16.949 12.57C16.949 12.9973 17.0928 13.3527 17.3805 13.636C17.6678 13.9193 18.024 14.061 18.449 14.061H26.849ZM26.849 25.561C27.274 25.561 27.6303 25.4163 27.918 25.127C28.2053 24.838 28.349 24.4797 28.349 24.052C28.349 23.6247 28.2053 23.2693 27.918 22.986C27.6303 22.7027 27.274 22.561 26.849 22.561H18.449C18.024 22.561 17.6678 22.7057 17.3805 22.995C17.0928 23.284 16.949 23.6423 16.949 24.07C16.949 24.4973 17.0928 24.8527 17.3805 25.136C17.6678 25.4193 18.024 25.561 18.449 25.561H26.849ZM11.699 15.161C12.414 15.161 13.0262 14.9063 13.5355 14.397C14.0445 13.888 14.299 13.276 14.299 12.561C14.299 11.846 14.0445 11.234 13.5355 10.725C13.0262 10.2157 12.414 9.961 11.699 9.961C10.984 9.961 10.3718 10.2157 9.8625 10.725C9.3535 11.234 9.099 11.846 9.099 12.561C9.099 13.276 9.3535 13.888 9.8625 14.397C10.3718 14.9063 10.984 15.161 11.699 15.161ZM11.699 26.661C12.414 26.661 13.0262 26.4065 13.5355 25.8975C14.0445 25.3882 14.299 24.776 14.299 24.061C14.299 23.346 14.0445 22.7338 13.5355 22.2245C13.0262 21.7155 12.414 21.461 11.699 21.461C10.984 21.461 10.3718 21.7155 9.8625 22.2245C9.3535 22.7338 9.099 23.346 9.099 24.061C9.099 24.776 9.3535 25.3882 9.8625 25.8975C10.3718 26.4065 10.984 26.661 11.699 26.661ZM3.4065 36.61C2.4865 36.61 1.68883 36.2722 1.0135 35.5965C0.337833 34.9212 0 34.1235 0 33.2035V3.4185C0 2.49517 0.337833 1.69466 1.0135 1.017C1.68883 0.338998 2.4865 0 3.4065 0H33.1915C34.1148 0 34.9153 0.338998 35.593 1.017C36.271 1.69466 36.61 2.49517 36.61 3.4185V33.2035C36.61 34.1235 36.271 34.9212 35.593 35.5965C34.9153 36.2722 34.1148 36.61 33.1915 36.61H3.4065ZM3.4065 33.2035H33.1915V3.4185H3.4065V33.2035Z" fill="var(--fill-0, black)"/>
</svg>
