<svg preserveAspectRatio="none" width="100%" height="100%" overflow="visible" style="display: block;" viewBox="0 0 13.5367 13.5367" fill="none" xmlns="http://www.w3.org/2000/svg">
<path id="Vector" d="M4.70667 9.4895C5.06289 9.4895 5.36867 9.36433 5.624 9.114C5.87922 8.86367 6.00683 8.56267 6.00683 8.211C6.00683 7.85944 5.87922 7.55828 5.624 7.3075C5.36867 7.05661 5.06289 6.93117 4.70667 6.93117C4.35967 6.93117 4.06322 7.05656 3.81733 7.30733C3.57144 7.55811 3.4485 7.85961 3.4485 8.21183C3.4485 8.56294 3.57144 8.86367 3.81733 9.114C4.06322 9.36433 4.35967 9.4895 4.70667 9.4895ZM8.82317 9.4895C9.17394 9.4895 9.47456 9.36433 9.725 9.114C9.97556 8.86367 10.1008 8.56267 10.1008 8.211C10.1008 7.85944 9.97589 7.55828 9.726 7.3075C9.47622 7.05661 9.17595 6.93117 8.82517 6.93117C8.47428 6.93117 8.17278 7.05656 7.92067 7.30733C7.66856 7.55811 7.5425 7.85961 7.5425 8.21183C7.5425 8.56294 7.66822 8.86367 7.91967 9.114C8.17111 9.36433 8.47228 9.4895 8.82317 9.4895ZM6.764 5.867C7.11967 5.867 7.42461 5.74072 7.67883 5.48817C7.93306 5.23561 8.06017 4.93117 8.06017 4.57483C8.06017 4.2185 7.93333 3.91839 7.67967 3.6745C7.42611 3.43061 7.12122 3.30867 6.765 3.30867C6.418 3.30867 6.12139 3.43306 5.87517 3.68183C5.62894 3.93072 5.50583 4.22867 5.50583 4.57567C5.50583 4.93178 5.62667 5.23606 5.86833 5.4885C6.10989 5.74083 6.40844 5.867 6.764 5.867ZM6.77133 13.5367C5.83578 13.5367 4.95778 13.3596 4.13733 13.0053C3.31689 12.6511 2.59933 12.1667 1.98467 11.552C1.37 10.9373 0.885556 10.2196 0.531333 9.39867C0.177111 8.57778 0 7.69906 0 6.7625C0 5.82606 0.177111 4.94717 0.531333 4.12583C0.885556 3.30461 1.36978 2.58939 1.984 1.98017C2.59822 1.37083 3.31589 0.8885 4.137 0.533167C4.95811 0.177722 5.83706 0 6.77383 0C7.7105 0 8.58967 0.177611 9.41133 0.532833C10.2329 0.888055 10.9482 1.37011 11.5572 1.979C12.1663 2.58789 12.6484 3.30389 13.0037 4.127C13.359 4.95011 13.5367 5.82972 13.5367 6.76583C13.5367 7.70183 13.3589 8.58 13.0035 9.40033C12.6482 10.2208 12.1658 10.9372 11.5565 11.5495C10.9473 12.1617 10.2313 12.646 9.40867 13.0023C8.586 13.3586 7.70689 13.5367 6.77133 13.5367ZM6.77467 12.4012C8.33622 12.4012 9.66372 11.8526 10.7572 10.7553C11.8505 9.658 12.3972 8.32689 12.3972 6.762C12.3972 5.20044 11.8515 3.87294 10.7602 2.7795C9.66894 1.68617 8.337 1.1395 6.76433 1.1395C5.207 1.1395 3.8795 1.68517 2.78183 2.7765C1.68428 3.86772 1.1355 5.19967 1.1355 6.77233C1.1355 8.32967 1.68411 9.65717 2.78133 10.7548C3.87867 11.8524 5.20978 12.4012 6.77467 12.4012Z" fill="var(--fill-0, black)"/>
</svg>
