<svg preserveAspectRatio="none" width="100%" height="100%" overflow="visible" style="display: block;" viewBox="0 0 20.305 20.305" fill="none" xmlns="http://www.w3.org/2000/svg">
<path id="Vector" d="M7.06 14.2343C7.59433 14.2343 8.053 14.0465 8.436 13.671C8.81883 13.2955 9.01025 12.844 9.01025 12.3165C9.01025 11.7892 8.81883 11.3374 8.436 10.9612C8.053 10.5849 7.59433 10.3967 7.06 10.3967C6.5395 10.3967 6.09483 10.5848 5.726 10.961C5.35717 11.3372 5.17275 11.7894 5.17275 12.3177C5.17275 12.8444 5.35717 13.2955 5.726 13.671C6.09483 14.0465 6.5395 14.2343 7.06 14.2343ZM13.2347 14.2343C13.7609 14.2343 14.2118 14.0465 14.5875 13.671C14.9633 13.2955 15.1512 12.844 15.1512 12.3165C15.1512 11.7892 14.9638 11.3374 14.589 10.9612C14.2143 10.5849 13.7639 10.3967 13.2378 10.3967C12.7114 10.3967 12.2592 10.5848 11.881 10.961C11.5028 11.3372 11.3138 11.7894 11.3138 12.3177C11.3138 12.8444 11.5023 13.2955 11.8795 13.671C12.2567 14.0465 12.7084 14.2343 13.2347 14.2343ZM10.146 8.8005C10.6795 8.8005 11.1369 8.61108 11.5183 8.23225C11.8996 7.85342 12.0903 7.39675 12.0903 6.86225C12.0903 6.32775 11.9 5.87758 11.5195 5.51175C11.1392 5.14592 10.6818 4.963 10.1475 4.963C9.627 4.963 9.18208 5.14958 8.81275 5.52275C8.44342 5.89608 8.25875 6.343 8.25875 6.8635C8.25875 7.39767 8.44 7.85408 8.8025 8.23275C9.16483 8.61125 9.61267 8.8005 10.146 8.8005ZM10.157 20.305C8.75367 20.305 7.43667 20.0393 6.206 19.508C4.97533 18.9767 3.899 18.25 2.977 17.328C2.055 16.406 1.32833 15.3293 0.797 14.098C0.265667 12.8667 0 11.5486 0 10.1437C0 8.73908 0.265667 7.42075 0.797 6.18875C1.32833 4.95692 2.05467 3.88408 2.976 2.97025C3.89733 2.05625 4.97383 1.33275 6.2055 0.79975C7.43717 0.266583 8.75558 0 10.1608 0C11.5658 0 12.8845 0.266416 14.117 0.799249C15.3493 1.33208 16.4223 2.05517 17.3358 2.9685C18.2494 3.88183 18.9727 4.95583 19.5055 6.1905C20.0385 7.42517 20.305 8.74458 20.305 10.1487C20.305 11.5527 20.0384 12.87 19.5052 14.1005C18.9722 15.3312 18.2487 16.4057 17.3347 17.3242C16.4209 18.2426 15.347 18.969 14.113 19.5035C12.879 20.0378 11.5603 20.305 10.157 20.305ZM10.162 18.6017C12.5043 18.6017 14.4956 17.7788 16.1358 16.133C17.7758 14.487 18.5957 12.4903 18.5957 10.143C18.5957 7.80067 17.7772 5.80942 16.1402 4.16925C14.5034 2.52925 12.5055 1.70925 10.1465 1.70925C7.8105 1.70925 5.81925 2.52775 4.17275 4.16475C2.52642 5.80158 1.70325 7.7995 1.70325 10.1585C1.70325 12.4945 2.52617 14.4857 4.172 16.1322C5.818 17.7786 7.81467 18.6017 10.162 18.6017Z" fill="var(--fill-0, black)"/>
</svg>
