<svg preserveAspectRatio="none" width="100%" height="100%" overflow="visible" style="display: block;" viewBox="0 0 12.2033 12.2033" fill="none" xmlns="http://www.w3.org/2000/svg">
<path id="Vector" d="M8.94967 4.687C9.09133 4.687 9.21011 4.63878 9.306 4.54233C9.40178 4.446 9.44967 4.32655 9.44967 4.184C9.44967 4.04155 9.40178 3.92311 9.306 3.82867C9.21011 3.73422 9.09133 3.687 8.94967 3.687H6.14967C6.008 3.687 5.88928 3.73522 5.7935 3.83167C5.69761 3.928 5.64967 4.04744 5.64967 4.19C5.64967 4.33244 5.69761 4.45089 5.7935 4.54533C5.88928 4.63978 6.008 4.687 6.14967 4.687H8.94967ZM8.94967 8.52033C9.09133 8.52033 9.21011 8.47211 9.306 8.37567C9.40178 8.27933 9.44967 8.15989 9.44967 8.01733C9.44967 7.87489 9.40178 7.75644 9.306 7.662C9.21011 7.56755 9.09133 7.52033 8.94967 7.52033H6.14967C6.008 7.52033 5.88928 7.56855 5.7935 7.665C5.69761 7.76133 5.64967 7.88078 5.64967 8.02333C5.64967 8.16578 5.69761 8.28422 5.7935 8.37867C5.88928 8.47311 6.008 8.52033 6.14967 8.52033H8.94967ZM3.89967 5.05367C4.138 5.05367 4.34206 4.96878 4.51183 4.799C4.6815 4.62933 4.76633 4.42533 4.76633 4.187C4.76633 3.94867 4.6815 3.74467 4.51183 3.575C4.34206 3.40522 4.138 3.32033 3.89967 3.32033C3.66133 3.32033 3.45728 3.40522 3.2875 3.575C3.11783 3.74467 3.033 3.94867 3.033 4.187C3.033 4.42533 3.11783 4.62933 3.2875 4.799C3.45728 4.96878 3.66133 5.05367 3.89967 5.05367ZM3.89967 8.887C4.138 8.887 4.34206 8.80217 4.51183 8.6325C4.6815 8.46272 4.76633 8.25867 4.76633 8.02033C4.76633 7.782 4.6815 7.57794 4.51183 7.40817C4.34206 7.2385 4.138 7.15367 3.89967 7.15367C3.66133 7.15367 3.45728 7.2385 3.2875 7.40817C3.11783 7.57794 3.033 7.782 3.033 8.02033C3.033 8.25867 3.11783 8.46272 3.2875 8.6325C3.45728 8.80217 3.66133 8.887 3.89967 8.887ZM1.1355 12.2033C0.828833 12.2033 0.562944 12.0907 0.337833 11.8655C0.112611 11.6404 0 11.3745 0 11.0678V1.1395C0 0.831722 0.112611 0.564888 0.337833 0.338999C0.562944 0.112999 0.828833 0 1.1355 0H11.0638C11.3716 0 11.6384 0.112999 11.8643 0.338999C12.0903 0.564888 12.2033 0.831722 12.2033 1.1395V11.0678C12.2033 11.3745 12.0903 11.6404 11.8643 11.8655C11.6384 12.0907 11.3716 12.2033 11.0638 12.2033H1.1355ZM1.1355 11.0678H11.0638V1.1395H1.1355V11.0678Z" fill="var(--fill-0, black)"/>
</svg>
