<svg preserveAspectRatio="none" width="100%" height="100%" overflow="visible" style="display: block;" viewBox="0 0 40.263 36.622" fill="none" xmlns="http://www.w3.org/2000/svg">
<path id="Vector" d="M8.028 33.347V23.95H5.2315C4.77217 23.95 4.3855 23.7923 4.0715 23.477C3.75717 23.1617 3.6 22.7733 3.6 22.312C3.6 21.851 3.75717 21.465 4.0715 21.154C4.3855 20.8427 4.77217 20.687 5.2315 20.687H8.078C8.26067 17.863 9.29733 15.5303 11.188 13.689C13.0787 11.8477 15.536 10.7563 18.56 10.415V1.715C18.56 1.23533 18.7237 0.829668 19.051 0.498001C19.3783 0.166001 19.7823 0 20.263 0H30.5315C31.0122 0 31.4162 0.166001 31.7435 0.498001C32.0712 0.829668 32.235 1.23533 32.235 1.715V5.7285C32.235 6.21717 32.0712 6.62517 31.7435 6.9525C31.4162 7.27983 31.0122 7.4435 30.5315 7.4435H21.703V10.415C24.727 10.7563 27.1843 11.8477 29.075 13.689C30.9657 15.5303 32.0023 17.863 32.185 20.687H35.0315C35.4908 20.687 35.8775 20.8447 36.1915 21.16C36.5058 21.4753 36.663 21.8637 36.663 22.325C36.663 22.786 36.5058 23.172 36.1915 23.483C35.8775 23.7943 35.4908 23.95 35.0315 23.95H32.235V33.347H38.6315C39.0965 33.347 39.4847 33.5035 39.796 33.8165C40.1073 34.1295 40.263 34.5197 40.263 34.987C40.263 35.4543 40.1053 35.8437 39.79 36.155C39.4747 36.4663 39.0845 36.622 38.6195 36.622H1.6315C1.1665 36.622 0.778333 36.4633 0.467 36.146C0.155666 35.829 0 35.4368 0 34.9695C0 34.5022 0.157667 34.1148 0.473 33.8075C0.788333 33.5005 1.1785 33.347 1.6435 33.347H8.028ZM11.303 33.347H18.5V23.95H11.303V33.347ZM21.763 33.347H28.96V23.95H21.763V33.347ZM11.477 20.687H28.786C28.6033 18.6013 27.7057 16.8972 26.093 15.5745C24.4807 14.2515 22.494 13.59 20.133 13.59C17.772 13.59 15.7847 14.2515 14.171 15.5745C12.5577 16.8972 11.6597 18.6013 11.477 20.687Z" fill="var(--fill-0, #1D1E1D)"/>
</svg>
