<svg preserveAspectRatio="none" width="100%" height="100%" overflow="visible" style="display: block;" viewBox="0 0 40.0145 43.2145" fill="none" xmlns="http://www.w3.org/2000/svg">
<path id="Vector" d="M36.596 40.61H27.9935C27.5128 40.61 27.1088 40.4455 26.7815 40.1165C26.4542 39.7875 26.2905 39.3813 26.2905 38.898C26.2905 38.4147 26.4542 38.0113 26.7815 37.688C27.1088 37.365 27.5128 37.2035 27.9935 37.2035H36.596V15.811H6.811V24.8925C6.811 25.3812 6.6465 25.7892 6.3175 26.1165C5.9885 26.4438 5.58233 26.6075 5.099 26.6075C4.61567 26.6075 4.2125 26.4438 3.8895 26.1165C3.56617 25.7892 3.4045 25.3812 3.4045 24.8925V6.4185C3.4045 5.49517 3.74233 4.69467 4.418 4.017C5.09333 3.339 5.891 3 6.811 3H9.9535V1.7075C9.9535 1.22916 10.1195 0.824998 10.4515 0.494998C10.7838 0.164998 11.1878 0 11.6635 0C12.1532 0 12.5662 0.164998 12.9025 0.494998C13.2388 0.824998 13.407 1.22916 13.407 1.7075V3H30V1.7075C30 1.22916 30.1662 0.824998 30.4985 0.494998C30.8305 0.164998 31.2343 0 31.71 0C32.2 0 32.613 0.164998 32.949 0.494998C33.2853 0.824998 33.4535 1.22916 33.4535 1.7075V3H36.596C37.5193 3 38.3198 3.339 38.9975 4.017C39.6755 4.69467 40.0145 5.49517 40.0145 6.4185V37.2035C40.0145 38.1235 39.6755 38.9212 38.9975 39.5965C38.3198 40.2722 37.5193 40.61 36.596 40.61ZM16.7635 36.0145H1.7035C1.22283 36.0145 0.818833 35.8498 0.4915 35.5205C0.163833 35.1915 0 34.7853 0 34.302C0 33.819 0.163833 33.4158 0.4915 33.0925C0.818833 32.7692 1.22283 32.6075 1.7035 32.6075H16.7635L12.498 28.3045C12.1917 27.9645 12.0322 27.5658 12.0195 27.1085C12.0065 26.6508 12.17 26.2538 12.51 25.9175C12.85 25.5775 13.2478 25.4075 13.7035 25.4075C14.1592 25.4075 14.557 25.5775 14.897 25.9175L22.097 33.1055C22.437 33.4482 22.607 33.8507 22.607 34.313C22.607 34.7753 22.437 35.1765 22.097 35.5165L14.897 42.7045C14.557 43.0445 14.16 43.2145 13.706 43.2145C13.2517 43.2145 12.853 43.0445 12.51 42.7045C12.17 42.3645 11.9982 41.9667 11.9945 41.511C11.9905 41.0553 12.1583 40.6575 12.498 40.3175L16.7635 36.0145ZM6.811 12.811H36.596V6.4185H6.811V12.811Z" fill="var(--fill-0, #1D1E1D)"/>
</svg>
