<svg preserveAspectRatio="none" width="100%" height="100%" overflow="visible" style="display: block;" viewBox="0 0 16.0957 12.9058" fill="none" xmlns="http://www.w3.org/2000/svg">
<path id="Vector" d="M8.04783 1.61667C8.49494 1.114 9.03272 0.718889 9.66117 0.431333C10.2896 0.143778 10.9518 0 11.6478 0C12.8701 0 13.9089 0.427778 14.7645 1.28333C15.6201 2.13889 16.0478 3.17778 16.0478 4.4C16.0478 4.78533 16.0041 5.16022 15.9165 5.52467C15.8289 5.88911 15.7087 6.24089 15.5558 6.58C15.4838 6.74311 15.3732 6.85989 15.224 6.93033C15.0747 7.00067 14.9185 7.00539 14.7555 6.9445C14.6119 6.88628 14.5078 6.78956 14.443 6.65433C14.3781 6.51911 14.3761 6.38661 14.437 6.25683C14.5899 5.9675 14.7073 5.66661 14.7893 5.35417C14.8713 5.04172 14.9123 4.72367 14.9123 4.4C14.9123 3.48867 14.5961 2.71672 13.9637 2.08417C13.3311 1.45172 12.5592 1.1355 11.6478 1.1355C11.0304 1.1355 10.4578 1.29633 9.93017 1.618C9.40239 1.93956 8.92689 2.32706 8.50367 2.7805C8.38211 2.91328 8.23172 2.97967 8.0525 2.97967C7.87328 2.97967 7.71978 2.91328 7.592 2.7805C7.164 2.32972 6.687 1.94289 6.161 1.62C5.635 1.297 5.06394 1.1355 4.44783 1.1355C3.5365 1.1355 2.76522 1.45172 2.134 2.08417C1.50289 2.71672 1.18733 3.48906 1.18733 4.40117C1.18733 4.72439 1.22833 5.04206 1.31033 5.35417C1.39233 5.66628 1.50844 5.9685 1.65867 6.26083C1.71689 6.39061 1.71356 6.519 1.64867 6.646C1.58389 6.77311 1.48239 6.86706 1.34417 6.92783C1.19328 6.98872 1.03972 6.98483 0.8835 6.91617C0.727167 6.8475 0.613944 6.73122 0.543833 6.56733C0.386944 6.22556 0.265056 5.8725 0.178167 5.50817C0.0912778 5.14372 0.0478333 4.77433 0.0478333 4.4C0.0478333 3.17778 0.475611 2.13889 1.33117 1.28333C2.18672 0.427778 3.22561 0 4.44783 0C5.14783 0 5.81106 0.143778 6.4375 0.431333C7.06394 0.718889 7.60072 1.114 8.04783 1.61667ZM0.567833 12.9058C0.4075 12.9058 0.272778 12.8513 0.163667 12.7422C0.0545556 12.6331 0 12.4983 0 12.338V11.9747C0 11.6549 0.118667 11.3766 0.356 11.1398C0.593333 10.9032 0.927111 10.7279 1.35733 10.6142C1.62222 10.5358 1.86828 10.4954 2.0955 10.4928C2.32261 10.4902 2.56311 10.4973 2.817 10.5142C2.90533 10.5196 2.97572 10.5583 3.02817 10.6302C3.08061 10.7021 3.09244 10.7834 3.06367 10.8743C3.02178 11.0171 2.99072 11.1627 2.9705 11.3112C2.95028 11.4596 2.94017 11.6141 2.94017 11.7747V12.338C2.94017 12.4983 2.88561 12.6331 2.7765 12.7422C2.66739 12.8513 2.53272 12.9058 2.3725 12.9058H0.567833ZM4 12.338V11.7747C4 11.0364 4.37394 10.4412 5.12183 9.98883C5.86972 9.53639 6.84506 9.31017 8.04783 9.31017C9.26372 9.31017 10.2423 9.53639 10.9837 9.98883C11.725 10.4412 12.0957 11.0364 12.0957 11.7747V12.338C12.0957 12.4983 12.0411 12.6331 11.932 12.7422C11.8229 12.8513 11.6882 12.9058 11.5278 12.9058H4.56783C4.4075 12.9058 4.27278 12.8513 4.16367 12.7422C4.05456 12.6331 4 12.4983 4 12.338ZM13.7232 12.9058C13.5629 12.9058 13.4283 12.8513 13.3192 12.7422C13.2101 12.6331 13.1555 12.4983 13.1555 12.338V11.7747C13.1555 11.6141 13.1457 11.4596 13.126 11.3112C13.1064 11.1627 13.0764 11.0171 13.036 10.8743C13.0046 10.7834 13.0151 10.7021 13.0675 10.6302C13.1199 10.5583 13.1903 10.5196 13.2787 10.5142C13.5326 10.4973 13.7731 10.4902 14.0002 10.4928C14.2274 10.4954 14.4734 10.5358 14.7383 10.6142C15.1686 10.7279 15.5023 10.9032 15.7397 11.1398C15.977 11.3766 16.0957 11.6549 16.0957 11.9747V12.338C16.0957 12.4983 16.0411 12.6331 15.932 12.7422C15.8229 12.8513 15.6882 12.9058 15.5278 12.9058H13.7232ZM8.04433 10.3858C7.19767 10.3858 6.5065 10.5126 5.97083 10.766C5.43517 11.0193 5.15672 11.3449 5.1355 11.7428V11.8262H10.9602V11.7262C10.9389 11.3394 10.6633 11.0193 10.1332 10.766C9.60306 10.5126 8.90678 10.3858 8.04433 10.3858ZM2.54117 9.98883C2.21539 9.98883 1.93594 9.87139 1.70283 9.6365C1.46983 9.40172 1.35333 9.11978 1.35333 8.79067C1.35333 8.46022 1.47044 8.17844 1.70467 7.94533C1.93889 7.71222 2.22022 7.59567 2.54867 7.59567C2.87833 7.59567 3.16039 7.71244 3.39483 7.946C3.62917 8.17956 3.74633 8.46361 3.74633 8.79817C3.74633 9.12306 3.62928 9.40272 3.39517 9.63717C3.16106 9.87161 2.87639 9.98883 2.54117 9.98883ZM13.5412 9.98883C13.2154 9.98883 12.9359 9.87139 12.7028 9.6365C12.4698 9.40172 12.3533 9.11978 12.3533 8.79067C12.3533 8.46022 12.4704 8.17844 12.7047 7.94533C12.9389 7.71222 13.2202 7.59567 13.5487 7.59567C13.8783 7.59567 14.1604 7.71244 14.3948 7.946C14.6292 8.17956 14.7463 8.46361 14.7463 8.79817C14.7463 9.12306 14.6293 9.40272 14.3952 9.63717C14.1611 9.87161 13.8764 9.98883 13.5412 9.98883ZM8.04983 8.81417C7.4795 8.81417 6.99528 8.61511 6.59717 8.217C6.19906 7.81889 6 7.33467 6 6.76433C6 6.18567 6.19906 5.70006 6.59717 5.3075C6.99528 4.91483 7.4795 4.7185 8.04983 4.7185C8.6285 4.7185 9.11411 4.91483 9.50667 5.3075C9.89933 5.70006 10.0957 6.18567 10.0957 6.76433C10.0957 7.33467 9.89933 7.81889 9.50667 8.217C9.11411 8.61511 8.6285 8.81417 8.04983 8.81417ZM8.05367 5.79417C7.78 5.79417 7.54928 5.88656 7.3615 6.07133C7.17361 6.256 7.07967 6.48544 7.07967 6.75967C7.07967 7.03122 7.17278 7.26156 7.359 7.45067C7.54511 7.63989 7.77667 7.7345 8.05367 7.7345C8.328 7.7345 8.55761 7.64061 8.7425 7.45283C8.9275 7.26506 9.02 7.03411 9.02 6.76C9.02 6.48333 8.92672 6.25317 8.74017 6.0695C8.55361 5.88594 8.32478 5.79417 8.05367 5.79417Z" fill="var(--fill-0, black)"/>
</svg>
