<svg preserveAspectRatio="none" width="100%" height="100%" overflow="visible" style="display: block;" viewBox="0 0 40.0025 39.6896" fill="none" xmlns="http://www.w3.org/2000/svg">
<path id="Vector" d="M33.141 39.6896C32.6573 39.6896 32.2538 39.5259 31.9305 39.1986C31.6072 38.8713 31.4455 38.4633 31.4455 37.9746C31.4455 37.7506 31.488 37.5251 31.573 37.2981C31.6577 37.0711 31.7685 36.8821 31.9055 36.7311C33.3482 35.2964 34.4905 33.6139 35.3325 31.6836C36.1745 29.7536 36.5955 27.6839 36.5955 25.4746C36.5955 23.2666 36.1745 21.1993 35.3325 19.2726C34.4905 17.3456 33.3482 15.6608 31.9055 14.2181C31.7685 14.0754 31.6577 13.8906 31.573 13.6636C31.488 13.4369 31.4455 13.2061 31.4455 12.9711C31.4455 12.4841 31.6093 12.0791 31.937 11.7561C32.2643 11.4328 32.6683 11.2711 33.149 11.2711C33.373 11.2711 33.5927 11.3209 33.808 11.4206C34.0233 11.5199 34.2015 11.6401 34.3425 11.7811C36.0918 13.5384 37.4725 15.5873 38.4845 17.9276C39.4965 20.2683 40.0025 22.7758 40.0025 25.4501C40.0025 28.1651 39.4965 30.6928 38.4845 33.0331C37.4725 35.3738 36.0918 37.4188 34.3425 39.1681C34.2005 39.3171 34.0212 39.4413 33.8045 39.5406C33.5878 39.6399 33.3667 39.6896 33.141 39.6896ZM27.162 33.7026C26.6813 33.7026 26.2773 33.5389 25.95 33.2116C25.6227 32.8843 25.459 32.4763 25.459 31.9876C25.459 31.7636 25.5067 31.5439 25.602 31.3286C25.6973 31.1133 25.8155 30.9351 25.9565 30.7941C26.6675 30.0831 27.2153 29.2803 27.6 28.3856C27.9847 27.4906 28.177 26.5183 28.177 25.4686C28.177 24.4269 27.9847 23.4606 27.6 22.5696C27.2153 21.6786 26.6675 20.8778 25.9565 20.1671C25.8152 20.0178 25.6968 19.8354 25.6015 19.6201C25.5065 19.4044 25.459 19.1808 25.459 18.9491C25.459 18.4681 25.6227 18.0661 25.95 17.7431C26.2773 17.4198 26.6813 17.2581 27.162 17.2581C27.4193 17.2581 27.6517 17.2994 27.859 17.3821C28.066 17.4648 28.2442 17.5934 28.3935 17.7681C29.3775 18.7521 30.1572 19.9049 30.7325 21.2266C31.3078 22.5483 31.5955 23.9621 31.5955 25.4681C31.5955 26.9818 31.3078 28.4016 30.7325 29.7276C30.1572 31.0539 29.3775 32.2051 28.3935 33.1811C28.2442 33.3638 28.066 33.4964 27.859 33.5791C27.6517 33.6614 27.4193 33.7026 27.162 33.7026ZM11.7035 24.8681H7.4185V26.2226C7.4425 27.4173 7.82817 28.4784 8.5755 29.4061C9.32317 30.3338 10.2817 30.9563 11.451 31.2736L12.051 31.4236C13.232 31.7216 13.8968 32.4626 14.0455 33.6466C14.1942 34.8306 13.7287 35.7298 12.649 36.3441C10.9643 37.2834 9.19783 37.9619 7.3495 38.3796C5.5015 38.7973 3.6195 39.0434 1.7035 39.1181C1.2395 39.1514 0.839667 39.0044 0.504 38.6771C0.168 38.3498 0 37.9456 0 37.4646C0 36.9919 0.161667 36.5919 0.485 36.2646C0.808 35.9373 1.21417 35.7569 1.7035 35.7236C3.01583 35.6729 4.31317 35.5208 5.5955 35.2671C6.87783 35.0138 8.15033 34.6391 9.413 34.1431C7.85933 33.3031 6.56883 32.1931 5.5415 30.8131C4.51383 29.4331 4 27.8669 4 26.1146V23.1646C4 22.6839 4.16367 22.2799 4.491 21.9526C4.81833 21.6253 5.2225 21.4616 5.7035 21.4616H12V16.6646C12 16.1839 12.1637 15.7799 12.491 15.4526C12.8183 15.1253 13.2225 14.9616 13.7035 14.9616H19.062L12.562 2.48559C12.338 2.07093 12.309 1.63776 12.475 1.18609C12.641 0.734093 12.9352 0.404592 13.3575 0.197592C13.7722 -0.017741 14.197 -0.0570736 14.632 0.0795931C15.0673 0.215926 15.4008 0.491425 15.6325 0.906092L22.001 13.1931C22.686 14.5038 22.68 15.6939 21.983 16.7636C21.286 17.8333 20.2932 18.3681 19.0045 18.3681H15.4065V21.1646C15.4065 22.1909 15.0458 23.0648 14.3245 23.7861C13.6035 24.5074 12.7298 24.8681 11.7035 24.8681Z" fill="var(--fill-0, #1D1E1D)"/>
</svg>
