<svg preserveAspectRatio="none" width="100%" height="100%" overflow="visible" style="display: block;" viewBox="0 0 40.9325 43.55" fill="none" xmlns="http://www.w3.org/2000/svg">
<path id="Vector" d="M15.7455 7.587C14.7065 7.587 13.8167 7.21417 13.076 6.4685C12.3357 5.72283 11.9655 4.83066 11.9655 3.792C11.9655 2.753 12.3343 1.86133 13.072 1.117C13.81 0.372332 14.6985 0 15.7375 0C16.7762 0 17.6697 0.371499 18.418 1.1145C19.1663 1.85717 19.5405 2.74883 19.5405 3.7895C19.5405 4.82683 19.1677 5.719 18.422 6.466C17.6763 7.21333 16.7842 7.587 15.7455 7.587ZM9.673 26.7815L6.009 42.3045C5.93433 42.6948 5.74533 43 5.442 43.22C5.139 43.44 4.79067 43.55 4.397 43.55C3.87733 43.55 3.44517 43.3527 3.1005 42.958C2.75617 42.5637 2.64183 42.1092 2.7575 41.5945L8.222 14.16L3.287 16.364V21.4185C3.287 21.8835 3.12767 22.2717 2.809 22.583C2.49033 22.8943 2.09817 23.05 1.6325 23.05C1.16683 23.05 0.778333 22.8943 0.467 22.583C0.155666 22.2717 0 21.8835 0 21.4185V15.3165C0 14.9628 0.0966664 14.6433 0.29 14.358C0.483 14.0727 0.734166 13.8577 1.0435 13.713L9.7315 10.087C10.7795 9.63767 11.8525 9.529 12.9505 9.761C14.0482 9.99267 14.8803 10.5418 15.447 11.4085L17.571 14.7085C18.4297 16.0515 19.472 17.1527 20.698 18.012C21.924 18.8713 23.2877 19.4177 24.789 19.651C25.2543 19.7337 25.6427 19.9358 25.954 20.2575C26.2653 20.5788 26.421 20.9688 26.421 21.4275C26.421 21.8948 26.257 22.282 25.929 22.589C25.601 22.8963 25.221 23.0127 24.789 22.938C22.9463 22.7127 21.256 22.1223 19.718 21.167C18.18 20.2113 16.7777 18.8615 15.511 17.1175L13.521 24.5945L16.9775 27.701C17.3505 28.0077 17.6343 28.3875 17.829 28.8405C18.0237 29.2938 18.121 29.7677 18.121 30.262V41.9185C18.121 42.3778 17.9623 42.7645 17.645 43.0785C17.328 43.3928 16.9378 43.55 16.4745 43.55C16.0112 43.55 15.6258 43.3928 15.3185 43.0785C15.0112 42.7645 14.8575 42.3778 14.8575 41.9185V31.4665L9.673 26.7815ZM30.371 15.24H24.4425C23.9618 15.24 23.5578 15.0763 23.2305 14.749C22.9028 14.4217 22.739 14.0177 22.739 13.537V2.5C22.739 2.01933 22.9028 1.61533 23.2305 1.288C23.5578 0.960334 23.9618 0.7965 24.4425 0.7965H39.2175C39.6972 0.7965 40.103 0.960334 40.435 1.288C40.7667 1.61533 40.9325 2.01933 40.9325 2.5V13.537C40.9325 14.0177 40.7667 14.4217 40.435 14.749C40.103 15.0763 39.6972 15.24 39.2175 15.24H33.289V42.097C33.289 42.509 33.1482 42.8542 32.8665 43.1325C32.5848 43.4108 32.2353 43.55 31.818 43.55C31.4043 43.55 31.0597 43.4108 30.784 43.1325C30.5087 42.8542 30.371 42.509 30.371 42.097V15.24ZM32.3905 9.365L31.7165 10.027C31.4418 10.2933 31.3045 10.6092 31.3045 10.9745C31.3045 11.3402 31.4418 11.6603 31.7165 11.935C31.9912 12.2097 32.307 12.347 32.664 12.347C33.0213 12.347 33.3407 12.2062 33.622 11.9245L36.298 9.237C36.4807 9.06233 36.6133 8.87333 36.696 8.67C36.7783 8.46667 36.8195 8.25567 36.8195 8.037C36.8195 7.80933 36.778 7.59783 36.695 7.4025C36.6123 7.20717 36.48 7.019 36.298 6.838L33.624 4.164C33.3537 3.88933 33.0372 3.752 32.6745 3.752C32.3118 3.752 31.9925 3.88933 31.7165 4.164C31.4338 4.44167 31.2925 4.75767 31.2925 5.112C31.2925 5.46633 31.4338 5.78233 31.7165 6.06L32.3905 6.722H27.1025C26.7242 6.722 26.4113 6.8485 26.164 7.1015C25.9163 7.3545 25.7925 7.67083 25.7925 8.0505C25.7925 8.42983 25.9183 8.74383 26.17 8.9925C26.4213 9.24083 26.736 9.365 27.114 9.365H32.3905Z" fill="var(--fill-0, #34495E)"/>
</svg>
