<svg preserveAspectRatio="none" width="100%" height="100%" overflow="visible" style="display: block;" viewBox="0 0 18.305 20.305" fill="none" xmlns="http://www.w3.org/2000/svg">
<path id="Vector" d="M14.1523 0.5C14.2722 0.5 14.3515 0.53537 14.4219 0.604492C14.4925 0.673823 14.5244 0.746442 14.5244 0.853516V2H16.5957C16.9191 2 17.1933 2.11317 17.4424 2.3623H17.4434C17.6923 2.61123 17.8046 2.88574 17.8047 3.20898V18.6016C17.8047 18.9228 17.6924 19.1963 17.4434 19.4443C17.1945 19.6924 16.9197 19.8047 16.5957 19.8047H1.70312C1.38141 19.8047 1.10823 19.6923 0.860352 19.4443L0.773438 19.3506C0.58577 19.1278 0.5 18.8831 0.5 18.6016V3.20898C0.500062 2.88513 0.612332 2.61014 0.860352 2.36133H0.861328C1.1093 2.11246 1.38205 2.00003 1.70312 2H3.77441V0.853516C3.77445 0.771672 3.79282 0.710054 3.83105 0.655273L3.87598 0.602539C3.94685 0.532166 4.02173 0.5 4.12988 0.5C4.24917 0.500075 4.32787 0.535309 4.39844 0.604492C4.4691 0.673822 4.50093 0.746441 4.50098 0.853516V2H13.7979V0.853516C13.7979 0.77169 13.8161 0.710099 13.8545 0.655273L13.8994 0.602539C13.97 0.532416 14.0444 0.50008 14.1523 0.5ZM1.20312 19.1016H17.0957V7.40527H1.20312V19.1016ZM1.20312 6.90527H17.0957V2.70898H1.20312V6.90527Z" fill="var(--fill-0, white)" stroke="var(--stroke-0, white)"/>
</svg>
