<svg preserveAspectRatio="none" width="100%" height="100%" overflow="visible" style="display: block;" viewBox="0 0 113.584 30.7498" fill="none" xmlns="http://www.w3.org/2000/svg">
<path id="Logo" fill-rule="evenodd" clip-rule="evenodd" d="M27.0443 7.48759L27.2596 7.87196C27.5306 8.33906 27.6738 8.86938 27.6747 9.40938V21.3249C27.6703 21.8645 27.5273 22.3939 27.2596 22.8624L27.029 23.2468C26.7656 23.7174 26.3771 24.1058 25.9067 24.3692L15.5901 30.3346C15.1229 30.6056 14.5927 30.7487 14.0526 30.7497H13.6221C13.0813 30.7548 12.5495 30.6112 12.0846 30.3346L1.75273 24.3846C1.29224 24.1081 0.906791 23.7227 0.630372 23.2622L0.415123 22.8778C0.144134 22.4106 0.000959995 21.8804 0 21.3403V9.42475C0.000959995 8.88476 0.144134 8.35443 0.415123 7.88734L0.630372 7.50296C0.899823 7.03707 1.28684 6.64999 1.75273 6.38059L12.0692 0.415123C12.5364 0.144149 13.0667 0.000974995 13.6067 0H14.0526C14.5927 0.000974995 15.1229 0.144149 15.5901 0.415123L25.9067 6.36522C26.3752 6.63642 26.7668 7.02274 27.0443 7.48759ZM14.0526 3.07491H13.6067L4.61248 8.27164L13.8374 13.5913L23.0623 8.27164L14.0526 3.07491ZM24.3691 21.7094L15.3748 26.9061V16.2667L24.5997 10.9316V21.325L24.3691 21.7094ZM67.7685 22.755H64.5804V5.92875H67.7685V22.755ZM39 23.1157H42.5645V17.0051H44.1143L47.9002 23.1157H51.7082L47.5239 16.3852C49.3836 15.8317 50.7784 14.5697 50.7784 12.1786V12.09C50.7784 8.81338 48.4095 7.28571 44.6678 7.28571H39V23.1157ZM42.5645 14.5697V10.0311H44.5792C46.3062 10.0311 47.2803 10.5846 47.2803 12.2007V12.2893C47.2803 13.817 46.3726 14.5697 44.5792 14.5697H42.5645ZM57.4976 22.9979C60.6636 22.9979 62.6562 21.6032 63.0325 19.1013H59.9994C59.8001 20.0755 59.0696 20.7176 57.5862 20.7176C55.8371 20.7176 54.7966 19.6106 54.708 17.6844H63.0547V16.7988C63.0547 12.6586 60.3979 10.9096 57.4091 10.9096C54.0438 10.9096 51.4534 13.2786 51.4534 16.9317V17.1087C51.4534 20.8061 53.9995 22.9979 57.4976 22.9979ZM54.7523 15.714C54.9958 14.0756 55.97 13.1236 57.4091 13.1236C58.9367 13.1236 59.8223 13.9649 59.933 15.714H54.7523ZM73.8844 22.9989C75.7886 22.9989 76.9616 22.1133 77.5594 20.9399V22.7554H80.7476V11.1762H77.5594V17.9732C77.5594 19.678 76.4966 20.5192 75.1466 20.5192C73.7742 20.5192 73.1314 19.7665 73.1314 18.1945V11.1762H69.9436V18.6373C69.9436 21.6705 71.6262 22.9989 73.8844 22.9989ZM86.1349 22.7544H82.9241V11.1753H86.1349V12.9465C86.7101 11.8616 87.9498 10.9096 89.6771 10.9096C91.2048 10.9096 92.3561 11.5517 92.9096 12.9243C93.8396 11.5295 95.3448 10.9096 96.8058 10.9096C98.9538 10.9096 100.614 12.2602 100.614 15.3376V22.7544H97.4261V15.6918C97.4261 14.2084 96.7616 13.5442 95.6103 13.5442C94.3706 13.5442 93.3746 14.3413 93.3746 15.9132V22.7544H90.1863V15.6918C90.1863 14.2084 89.5001 13.5442 88.3706 13.5442C87.1309 13.5442 86.1349 14.3413 86.1349 15.9132V22.7544ZM108.027 22.9979C111.193 22.9979 113.186 21.6032 113.562 19.1013H110.529C110.329 20.0755 109.599 20.7176 108.115 20.7176C106.366 20.7176 105.326 19.6106 105.238 17.6844H113.584V16.7988C113.584 12.6586 110.927 10.9096 107.938 10.9096C104.573 10.9096 101.983 13.2786 101.983 16.9317V17.1087C101.983 20.8061 104.529 22.9979 108.027 22.9979ZM105.282 15.714C105.526 14.0756 106.5 13.1236 107.938 13.1236C109.466 13.1236 110.352 13.9649 110.463 15.714H105.282Z" fill="var(--fill-0, white)"/>
</svg>
