<svg preserveAspectRatio="none" width="100%" height="100%" overflow="visible" style="display: block;" viewBox="0 0 115.697 19.2857" fill="none" xmlns="http://www.w3.org/2000/svg">
<g id="Logo">
<path fill-rule="evenodd" clip-rule="evenodd" d="M30.9174 0L21.0521 19.2857H11.7857L15.9144 11.2929H15.7291C12.323 15.7144 7.24104 18.6252 0 19.2857V11.4035C0 11.4035 4.63227 11.1299 7.35544 8.26688H0V0.00015212H8.26672V6.79941L8.45226 6.79865L11.8304 0.00015212H18.0823V6.7563L18.2677 6.756L21.7726 0H30.9174Z" fill="var(--fill-0, white)"/>
<path d="M84.714 17.157H87.3764V1.875H84.714V17.157Z" fill="var(--fill-0, white)"/>
<path fill-rule="evenodd" clip-rule="evenodd" d="M70.0364 17.001C70.615 17.2415 71.2034 17.3618 71.8016 17.3618C72.7898 17.3618 73.6741 17.1213 74.4543 16.6401C75.2344 16.159 75.8391 15.4959 76.2682 14.6507C76.6973 13.799 76.9118 12.8334 76.9118 11.7542C76.9118 10.6749 76.6908 9.70946 76.2487 8.85775C75.8065 8.00605 75.1922 7.34614 74.4054 6.87802C73.6188 6.40341 72.7248 6.16936 71.7235 6.17585C71.0864 6.17585 70.4753 6.29938 69.8901 6.54645C69.305 6.79351 68.8174 7.14459 68.4273 7.5997C68.3972 7.63435 68.3679 7.66935 68.3395 7.70469V1.88481H65.6674V17.1571H68.32L68.3147 15.7303C68.3832 15.8145 68.4566 15.8966 68.5345 15.977C68.9571 16.4126 69.4578 16.7539 70.0364 17.001ZM72.7671 14.5337C72.3314 14.8002 71.8341 14.9335 71.2749 14.9335C70.7223 14.9335 70.2152 14.7969 69.7536 14.5239C69.2919 14.2443 68.9246 13.864 68.6515 13.3828C68.3849 12.9018 68.2517 12.3556 68.2517 11.7444C68.2452 11.1333 68.3752 10.5872 68.6418 10.1061C68.9149 9.61845 69.2822 9.24134 69.7438 8.97478C70.2054 8.70172 70.7158 8.56843 71.2749 8.57494C71.8341 8.56843 72.3314 8.69846 72.7671 8.96503C73.2092 9.22509 73.5472 9.59893 73.7813 10.0866C74.0218 10.5677 74.1422 11.1203 74.1422 11.7444C74.1422 12.3686 74.0218 12.9213 73.7813 13.4023C73.5472 13.8835 73.2092 14.2606 72.7671 14.5337Z" fill="var(--fill-0, white)"/>
<path d="M34.7743 2.80151H37.8171L40.5389 12.7418L43.4345 2.80151H45.9701L49.1104 12.5423L51.724 2.80151H54.5132L50.3977 17.157H47.7743L44.581 7.64103L41.6498 17.157H38.9972L34.7743 2.80151Z" fill="var(--fill-0, white)"/>
<path fill-rule="evenodd" clip-rule="evenodd" d="M59.0068 17.4105C57.947 17.4171 56.9912 17.1829 56.1396 16.7084C55.2943 16.2272 54.628 15.5608 54.1403 14.7091C53.6592 13.8574 53.4187 12.8854 53.4187 11.7931C53.4187 10.7334 53.6657 9.77443 54.1599 8.91623C54.6539 8.05802 55.3236 7.38835 56.1688 6.90724C57.0141 6.42612 57.9567 6.18556 58.997 6.18556C60.1673 6.18556 61.1912 6.44562 62.069 6.96575C62.9532 7.48587 63.6131 8.22381 64.0487 9.17953C64.4908 10.1288 64.6501 11.2178 64.5266 12.4466H56.173C56.1963 12.9361 56.3185 13.3815 56.5394 13.7827C56.7865 14.2247 57.1311 14.5693 57.5731 14.8164C58.0153 15.0634 58.5093 15.187 59.0556 15.187C59.4716 15.1804 59.8585 15.109 60.216 14.9725C60.5737 14.8294 60.8759 14.6377 61.123 14.397C61.3766 14.1565 61.5554 13.8835 61.6595 13.5779H64.4486C64.2795 14.3256 63.9415 14.992 63.4344 15.5771C62.9272 16.1558 62.2901 16.6076 61.5228 16.9327C60.7557 17.2577 59.917 17.4171 59.0068 17.4105ZM56.5492 9.76468C56.3934 10.0364 56.2854 10.3289 56.2253 10.6424H61.7627C61.7226 10.2464 61.6003 9.88557 61.3961 9.55988C61.162 9.17629 60.8435 8.88046 60.4404 8.67241C60.0373 8.45786 59.5822 8.35059 59.0751 8.35059C58.5354 8.35059 58.0446 8.47411 57.6024 8.72117C57.1603 8.96824 56.8092 9.31608 56.5492 9.76468Z" fill="var(--fill-0, white)"/>
<path d="M78.8724 6.40989C78.8724 5.53868 79.0706 4.76499 79.4672 4.08882C79.8638 3.40616 80.4197 2.87628 81.1349 2.49919C81.8565 2.11559 82.6985 1.91729 83.6607 1.9043V4.27411C83.2121 4.28062 82.8285 4.37489 82.51 4.55694C82.1979 4.73248 81.9573 4.98929 81.7883 5.32737C81.6327 5.63862 81.5487 5.99946 81.5364 6.40989H83.6022V8.66269H81.5348V17.157H78.8724V8.66269H77.1559V6.40989H78.8724Z" fill="var(--fill-0, white)"/>
<path fill-rule="evenodd" clip-rule="evenodd" d="M94.1441 17.391C93.0583 17.391 92.0863 17.1536 91.2281 16.6791C90.3764 16.1979 89.7068 15.5348 89.2192 14.6896C88.738 13.8379 88.4975 12.8724 88.4975 11.7931C88.4975 10.7074 88.738 9.73863 89.2192 8.88692C89.7068 8.02871 90.3764 7.3623 91.2281 6.88769C92.0863 6.41307 93.0583 6.17576 94.1441 6.17576C95.2363 6.17576 96.2117 6.41307 97.0698 6.88769C97.9345 7.3623 98.6075 8.02546 99.0886 8.87717C99.5696 9.72887 99.8135 10.7009 99.82 11.7931C99.8135 12.8724 99.5696 13.8379 99.0886 14.6896C98.6139 15.5348 97.9443 16.1979 97.0795 16.6791C96.2149 17.1536 95.2363 17.391 94.1441 17.391ZM94.1441 14.9432C94.7163 14.9432 95.2234 14.8131 95.6655 14.5531C96.1076 14.2865 96.4489 13.9159 96.6895 13.4413C96.9301 12.9602 97.0503 12.4108 97.0503 11.7931C97.0503 11.169 96.9301 10.6163 96.6895 10.1352C96.4489 9.65411 96.1076 9.28352 95.6655 9.02345C95.2234 8.75689 94.7163 8.6236 94.1441 8.6236C93.5785 8.6236 93.0746 8.75689 92.6325 9.02345C92.1969 9.28352 91.8588 9.65411 91.6182 10.1352C91.3777 10.6163 91.2607 11.169 91.2671 11.7931C91.2671 12.4108 91.3875 12.9602 91.628 13.4413C91.8751 13.9159 92.2131 14.2865 92.6422 14.5531C93.0778 14.8131 93.5785 14.9432 94.1441 14.9432Z" fill="var(--fill-0, white)"/>
<path d="M102.697 6.40987H99.7323L102.941 17.157H105.535L107.645 10.2928L109.923 17.157H112.478L115.697 6.40987H113.015L111.19 13.0993L109.172 6.40987H106.578L104.571 13.2466L102.697 6.40987Z" fill="var(--fill-0, white)"/>
</g>
</svg>
